Coordinates
version=1
nRows=49
nColumns=12
inDegrees=yes

Units are S.I. units (second, meters, Newtons, ...)
Angles are in degrees

endheader
time	SC_y	SC_z	SC_x	AC_y	AC_z	AC_x	GH_y	GH_z	GH_yy	EL_x	PS_y
       0.0              -42.02          18.24          44.55          51.03         -15.64          10.95          177.1          24.59          111.5          59.61          142.5
   0.02025              -42.02          18.24          44.54          51.03         -15.64          10.95          177.1          24.59          111.5          59.62          142.4
   0.04049              -42.03          18.24          44.54          51.04         -15.64          10.95          177.0           24.6          111.5          59.62          142.4
   0.06074              -42.03          18.24          44.53          51.04         -15.64          10.95          177.0           24.6          111.5          59.63          142.4
   0.08098              -42.03          18.23          44.53          51.04         -15.64          10.95          177.0          24.61          111.5          59.63          142.4
    0.1012              -42.03          18.23          44.52          51.04         -15.64          10.95          177.0          24.62          111.5          59.64          142.4
    0.1215              -42.03          18.23          44.52          51.04         -15.64          10.95          177.0          24.63          111.4          59.64          142.3
    0.1417              -42.04          18.23          44.51          51.05         -15.64          10.95          177.0          24.63          111.4          59.65          142.3
     0.162              -42.04          18.23           44.5          51.05         -15.63          10.95          176.9          24.64          111.4          59.66          142.3
    0.1822              -42.04          18.23           44.5          51.05         -15.63          10.95          176.9          24.65          111.3          59.67          142.3
    0.2025              -42.05          18.23          44.49          51.06         -15.63          10.95          176.9          24.66          111.3          59.67          142.3
    0.2227              -42.05          18.23          44.48          51.06         -15.63          10.95          176.9          24.68          111.3          59.68          142.2
    0.2429              -42.05          18.23          44.47          51.06         -15.63          10.95          176.9          24.69          111.2          59.69          142.2
    0.2632              -42.06          18.23          44.46          51.07         -15.63          10.94          176.8           24.7          111.2           59.7          142.2
    0.2834              -42.06          18.22          44.45          51.07         -15.63          10.94          176.8          24.72          111.2          59.72          142.1
    0.3037              -42.06          18.22          44.44          51.08         -15.62          10.94          176.8          24.73          111.1          59.73          142.1
    0.3239              -42.07          18.22          44.43          51.08         -15.62          10.94          176.7          24.75          111.1          59.74          142.0
    0.3442              -42.07          18.22          44.41          51.09         -15.62          10.94          176.7          24.77          111.0          59.76          142.0
    0.3644              -42.08          18.22           44.4          51.09         -15.62          10.94          176.7          24.79          111.0          59.77          142.0
    0.3847              -42.09          18.22          44.38           51.1         -15.62          10.94          176.6          24.81          110.9          59.79          141.9
    0.4049              -42.09          18.21          44.36          51.11         -15.61          10.94          176.6          24.83          110.8          59.81          141.8
    0.4251               -42.1          18.21          44.35          51.12         -15.61          10.94          176.5          24.86          110.8          59.83          141.8
    0.4454              -42.11          18.21          44.32          51.13         -15.61          10.94          176.4          24.89          110.7          59.85          141.7
    0.4656              -42.12          18.21           44.3          51.14          -15.6          10.93          176.4          24.92          110.6          59.88          141.6
    0.4859              -42.13           18.2          44.27          51.15          -15.6          10.93          176.3          24.96          110.5          59.91          141.5
    0.5061              -42.14           18.2          44.24          51.16         -15.59          10.93          176.2           25.0          110.3          59.94          141.4
    0.5264              -42.15          18.19          44.21          51.17         -15.59          10.93          176.1          25.04          110.2          59.98          141.3
    0.5466              -42.17          18.19          44.17          51.19         -15.58          10.93          176.0          25.09          110.1          60.02          141.2
    0.5669              -42.18          18.18          44.13          51.21         -15.58          10.92          175.9          25.15          109.9          60.06          141.1
    0.5871               -42.2          18.18          44.08          51.23         -15.57          10.92          175.7          25.22          109.7          60.12          140.9
    0.6074              -42.22          18.17          44.03          51.25         -15.56          10.92          175.6          25.29          109.5          60.18          140.7
    0.6276              -42.25          18.16          43.96          51.28         -15.55          10.91          175.4          25.38          109.2          60.24          140.5
    0.6478              -42.27          18.15          43.89          51.31         -15.54          10.91          175.2          25.48          109.0          60.32          140.3
    0.6681              -42.31          18.14          43.81          51.34         -15.52           10.9          175.0          25.59          108.6          60.42          140.0
    0.6883              -42.34          18.13          43.71          51.38         -15.51          10.89          174.7          25.72          108.2          60.52          139.6
    0.7086              -42.39          18.12          43.59          51.43         -15.49          10.89          174.4          25.88          107.8          60.65          139.2
    0.7288              -42.44           18.1          43.45          51.49         -15.47          10.88          174.0          26.07          107.2           60.8          138.8
    0.7491              -42.51          18.08          43.28          51.56         -15.44          10.87          173.5           26.3          106.6          60.98          138.2
    0.7693              -42.58          18.05          43.08          51.64         -15.41          10.85          172.9          26.57          105.8           61.2          137.5
    0.7896              -42.68          18.02          42.84          51.74         -15.37          10.84          172.2           26.9          104.8          61.47          136.7
    0.8098              -42.79          17.98          42.53          51.87         -15.32          10.82          171.4          27.31          103.6          61.79          135.7
      0.83              -42.94          17.94          42.15          52.03         -15.26          10.79          170.3          27.82          102.1           62.2          134.4
    0.8503              -43.12          17.88          41.68          52.23         -15.19          10.76          168.9          28.47          100.2          62.72          132.8
    0.8705              -43.35           17.8          41.07          52.48         -15.09          10.72          167.2          29.29          97.85          63.38          130.8
    0.8908              -43.65           17.7          40.29           52.8         -14.97          10.67          165.0          30.34          94.79          64.22          128.2
     0.911              -44.03          17.58           39.3          53.22         -14.81           10.6          162.2          31.69          90.87           65.3          124.9
    0.9313              -44.52          17.42          38.02          53.75         -14.61          10.52          158.6          33.41          85.85          66.68          120.6
    0.9515              -45.13          17.21          36.42          54.41         -14.36          10.41          154.1          35.57          79.55          68.41          115.3
    0.9718              -45.88          16.97          34.47          55.22         -14.05          10.28          148.5          38.21          71.87          70.52          108.8
